<svg width="43" height="28" viewBox="0 0 43 28" fill="none" xmlns="http://www.w3.org/2000/svg">
<path d="M42.4954 27.2158L34.3297 21.2469V7.40083L42.4954 0V27.2158Z" fill="#58FF84"/>
<g style="mix-blend-mode:overlay">
<path d="M42.4954 27.2158L34.3297 21.2469V7.40083L42.4954 0V27.2158Z" fill="url(#paint0_linear_3122_2252)"/>
<path d="M41.8756 1.39834V25.9945L34.9587 20.9324V7.67561L41.8756 1.39834ZM42.4954 0L34.3297 7.40083V21.2469L42.4954 27.2158V0Z" fill="url(#paint1_linear_3122_2252)"/>
</g>
<g opacity="0.47">
<path d="M42.4954 27.2159L34.3297 21.247V17.4763L42.4954 27.2159Z" fill="url(#paint2_linear_3122_2252)"/>
</g>
<g opacity="0.47">
<path d="M42.4954 0L34.3297 9.70901V7.28939L42.4954 0Z" fill="url(#paint3_linear_3122_2252)"/>
</g>
<path d="M15.7084 13.1285L0 27.2158H7.85422C9.69628 27.155 11.4531 26.4251 12.7957 25.1625L21.1049 17.8609L30.0811 25.6907C31.4874 26.7711 33.226 27.3281 34.9982 27.2661L42.5426 27.2188L26.4525 13.1285L28.6996 11.2676C27.5022 11.4197 26.2862 11.3179 25.1307 10.9689C23.9753 10.6199 22.9063 10.0314 21.9934 9.24188L13.8918 2.10057C13.3286 1.47343 12.6461 0.964713 11.8842 0.604071C11.1223 0.243428 10.2962 0.0380802 9.45407 0L1.00296 0L15.7084 13.1285Z" fill="url(#paint4_linear_3122_2252)"/>
<path d="M9.44034 0.619789C10.1983 0.656082 10.9415 0.842344 11.627 1.16779C12.3125 1.49324 12.9266 1.95141 13.4339 2.51579L13.4568 2.54175L13.4842 2.56617L21.5858 9.71206C23.083 11.005 24.9561 11.7826 26.9288 11.9302L26.0571 12.6538L25.4984 13.1117L26.0449 13.5911L40.9122 26.6067L35.0028 26.6433H34.9845C34.9082 26.6433 34.8318 26.6433 34.7402 26.6433C33.2009 26.6448 31.7039 26.1388 30.4811 25.2037L21.5201 17.3862L21.111 17.0289L20.7019 17.3877L15.4627 21.9949L12.3943 24.6923V24.7C11.1636 25.8568 9.55442 26.5268 7.86644 26.5853H1.6197L16.1222 13.5819L16.6397 13.1285L16.1237 12.6706L2.62876 0.619789H9.44034ZM9.45407 0H1.00296L15.7084 13.1285L0 27.2158H7.85422C9.69628 27.155 11.4531 26.4251 12.7957 25.1625L21.1049 17.8609L30.0811 25.6907C31.4152 26.7156 33.0504 27.271 34.7326 27.2707C34.8257 27.2707 34.9158 27.2707 34.9982 27.2707L42.5426 27.2234L26.4525 13.1285L28.6996 11.2676C28.3422 11.3133 27.9822 11.3362 27.6218 11.3363C25.5549 11.3374 23.5568 10.5939 21.9934 9.24188L13.8918 2.10057C13.3286 1.47343 12.6461 0.964713 11.8842 0.604071C11.1223 0.243428 10.2962 0.0380802 9.45407 0Z" fill="url(#paint5_linear_3122_2252)"/>
<path d="M29.8414 10.2174C28.4085 10.7369 26.8499 10.8002 25.3796 10.3984C23.9093 9.99655 22.5994 9.14942 21.6299 7.9733L28.5362 1.867C29.5413 0.757477 30.942 0.087029 32.4366 0L41.4434 0L29.8414 10.2174Z" fill="url(#paint6_linear_3122_2252)"/>
<path d="M39.8022 0.619789L35.2332 4.64384L29.5222 9.67237C28.8101 9.91289 28.0634 10.0356 27.3118 10.0357C26.6923 10.0355 26.0758 9.94971 25.4799 9.78076C24.3573 9.4583 23.3364 8.85272 22.5153 8.02215L25.2631 5.59642L28.9589 2.3265L28.9834 2.3036L29.0063 2.27918C29.8973 1.30005 31.1337 0.705123 32.4548 0.619789H39.8022ZM41.4448 0H32.438C30.9441 0.0858374 29.5435 0.754594 28.5376 1.86242L21.6314 7.96872C22.586 9.12368 23.8665 9.96421 25.3058 10.3807C25.9583 10.5662 26.6334 10.6602 27.3118 10.6601C28.174 10.6601 29.0297 10.5114 29.8413 10.2204L41.4448 0Z" fill="url(#paint7_linear_3122_2252)"/>
<defs>
<linearGradient id="paint0_linear_3122_2252" x1="38.4133" y1="27.2158" x2="38.4133" y2="0" gradientUnits="userSpaceOnUse">
<stop stop-color="#161C20"/>
<stop offset="0.33" stop-color="#B2B7BF"/>
<stop offset="0.58" stop-color="#939AA4"/>
<stop offset="0.75" stop-color="#F9F9FB"/>
<stop offset="0.97" stop-color="#D4D5D9"/>
</linearGradient>
<linearGradient id="paint1_linear_3122_2252" x1="35.1434" y1="22.9719" x2="46.9285" y2="2.56007" gradientUnits="userSpaceOnUse">
<stop stop-color="#161C20"/>
<stop offset="0.33" stop-color="#B2B7BF"/>
<stop offset="0.58" stop-color="#939AA4"/>
<stop offset="0.75" stop-color="#F9F9FB"/>
<stop offset="0.97" stop-color="#D4D5D9"/>
</linearGradient>
<linearGradient id="paint2_linear_3122_2252" x1="38.4133" y1="27.2159" x2="38.4133" y2="17.4763" gradientUnits="userSpaceOnUse">
<stop stop-color="#161C20"/>
<stop offset="0.24" stop-color="#1F2529"/>
<stop offset="1" stop-color="#171D21"/>
</linearGradient>
<linearGradient id="paint3_linear_3122_2252" x1="38.4133" y1="9.70901" x2="38.4133" y2="0" gradientUnits="userSpaceOnUse">
<stop stop-color="#161C20"/>
<stop offset="0.24" stop-color="#1F2529"/>
<stop offset="1" stop-color="#171D21"/>
</linearGradient>
<linearGradient id="paint4_linear_3122_2252" x1="21.2713" y1="27.2677" x2="21.2713" y2="0" gradientUnits="userSpaceOnUse">
<stop stop-color="#3D4247"/>
<stop offset="0.25" stop-color="#B2B7BF"/>
<stop offset="0.48" stop-color="#939AA4"/>
<stop offset="0.69" stop-color="#F9F9FB"/>
<stop offset="1" stop-color="#A6ADB1"/>
</linearGradient>
<linearGradient id="paint5_linear_3122_2252" x1="21.2713" y1="27.2677" x2="21.2713" y2="0" gradientUnits="userSpaceOnUse">
<stop stop-color="#161C20"/>
<stop offset="0.33" stop-color="#B2B7BF"/>
<stop offset="0.58" stop-color="#939AA4"/>
<stop offset="0.75" stop-color="#F9F9FB"/>
<stop offset="0.97" stop-color="#D4D5D9"/>
</linearGradient>
<linearGradient id="paint6_linear_3122_2252" x1="31.5374" y1="10.657" x2="31.5374" y2="0" gradientUnits="userSpaceOnUse">
<stop stop-color="#161C20"/>
<stop offset="0.09" stop-color="#20262A"/>
<stop offset="0.33" stop-color="#B2B7BF"/>
<stop offset="0.58" stop-color="#81868C"/>
<stop offset="0.75" stop-color="#F9F9FB"/>
<stop offset="0.97" stop-color="#D4D5D9"/>
</linearGradient>
<linearGradient id="paint7_linear_3122_2252" x1="24.567" y1="10.9562" x2="38.4848" y2="-2.96003" gradientUnits="userSpaceOnUse">
<stop stop-color="#161C20"/>
<stop offset="0.33" stop-color="#B2B7BF"/>
<stop offset="0.58" stop-color="#939AA4"/>
<stop offset="0.75" stop-color="#F9F9FB"/>
<stop offset="0.97" stop-color="#D4D5D9"/>
</linearGradient>
</defs>
</svg>
