<svg width="18" height="18" viewBox="0 0 18 18" fill="none" xmlns="http://www.w3.org/2000/svg">
<path d="M12.5556 5.71525V2.67762C12.5556 1.95562 12.5556 1.59462 12.3998 1.37277C12.2637 1.17894 12.053 1.04727 11.8158 1.00784C11.5443 0.962722 11.2086 1.114 10.5373 1.41656L2.65246 4.97045C2.05378 5.24029 1.75445 5.37521 1.53521 5.58445C1.34138 5.76943 1.19344 5.99524 1.10267 6.24462C1 6.5267 1 6.84866 1 7.49257V11.7917M13 11.3576H13.0089M1 8.49304L1 14.2222C1 15.1945 1 15.6807 1.19377 16.0521C1.36421 16.3787 1.63617 16.6443 1.97068 16.8108C2.35097 17 2.8488 17 3.84444 17H14.1556C15.1512 17 15.649 17 16.0293 16.8108C16.3638 16.6443 16.6358 16.3787 16.8062 16.0521C17 15.6807 17 15.1945 17 14.2222V8.49304C17 7.52072 17 7.03456 16.8062 6.66319C16.6358 6.33652 16.3638 6.07093 16.0293 5.90448C15.649 5.71525 15.1512 5.71525 14.1556 5.71525L3.84445 5.71525C2.8488 5.71525 2.35097 5.71525 1.97068 5.90448C1.63617 6.07092 1.36421 6.33652 1.19377 6.66319C1 7.03456 1 7.52072 1 8.49304ZM13.4444 11.3576C13.4444 11.5973 13.2455 11.7917 13 11.7917C12.7545 11.7917 12.5556 11.5973 12.5556 11.3576C12.5556 11.1179 12.7545 10.9236 13 10.9236C13.2455 10.9236 13.4444 11.1179 13.4444 11.3576Z" stroke="#0F0F16" stroke-width="2" stroke-linecap="round" stroke-linejoin="round"/>
</svg>
