<svg width="1848" height="200" viewBox="0 0 1848 200" fill="none" xmlns="http://www.w3.org/2000/svg">
<g style="mix-blend-mode:overlay">
<path d="M63.3367 5.49999V223H0.63672V5.49999H63.3367ZM304.197 223H226.797L160.197 84.4V223H102.297V5.49999H179.397L246.297 143.8V5.49999H304.197V223ZM329.924 113.5C329.924 43 371.924 0.399987 439.724 0.399987C495.524 0.399987 537.824 32.5 546.524 87.4H484.724C480.224 66.1 464.624 52.9 441.824 52.9C414.524 52.9 395.324 73 395.324 113.5C395.324 154.3 414.524 174.4 441.824 174.4C464.624 174.4 481.124 160.3 485.624 139.6H547.124C538.424 194.8 495.824 226.9 439.724 226.9C371.924 226.9 329.924 184.3 329.924 113.5ZM569.798 5.49999H632.498V133C632.498 160.6 640.898 174.4 667.898 174.4C694.598 174.4 703.298 158.5 703.298 133V5.49999H765.998V126.7C765.998 194.5 739.598 226.9 668.498 226.9C600.098 226.9 569.798 201.1 569.798 128.8V5.49999ZM801.613 223V5.49999H897.013C945.613 5.49999 981.913 16.3 981.913 63.1C981.913 81.1 977.113 94.3 964.813 105.4C980.113 114.7 990.013 129.7 990.013 153.7C990.013 203.2 954.313 223 900.913 223H801.613ZM864.313 134.8V172.3H902.713C916.813 172.3 924.613 164.2 924.613 153.7C924.613 142.9 916.813 134.8 902.713 134.8H864.313ZM864.313 56.2V91.3H898.813C910.813 91.3 917.413 83.2 917.413 73.9C917.413 64.6 910.813 56.2 898.813 56.2H864.313ZM990.672 223L1069.57 5.49999H1138.27L1217.17 223H1149.07L1137.97 186.7H1068.67L1057.57 223H990.672ZM1103.77 74.5L1083.37 139.9H1123.57L1103.77 74.5ZM1259.45 223V59.2H1194.65V5.49999H1387.25V59.2H1322.15V223H1259.45ZM1456.45 113.8C1456.45 156.7 1480.15 174.4 1505.35 174.4C1530.55 174.4 1554.25 156.7 1554.25 113.8C1554.25 70.9 1530.55 52.9 1505.35 52.9C1480.15 52.9 1456.45 70.9 1456.45 113.8ZM1619.35 113.8C1619.35 185.5 1571.95 226.9 1505.35 226.9C1438.75 226.9 1391.35 185.5 1391.35 113.8C1391.35 42.1 1438.75 0.399987 1505.35 0.399987C1571.95 0.399987 1619.35 42.1 1619.35 113.8ZM1777.36 223L1733.86 146.5H1708.06V223H1645.36V5.49999H1735.36C1792.36 5.49999 1834.96 19.3 1834.96 75.4C1834.96 106.6 1819.06 124.9 1796.26 135.4L1847.86 223H1777.36ZM1742.56 56.2H1708.06V99.1H1742.56C1760.86 99.1 1769.56 90.1 1769.56 77.8C1769.56 65.5 1760.86 56.2 1742.56 56.2Z" fill="white"/>
</g>
</svg>
