<svg width="926" height="904" viewBox="0 0 926 904" fill="none" xmlns="http://www.w3.org/2000/svg">
<g style="mix-blend-mode:soft-light">
<path d="M1661.13 902.255L1341.89 704.395V245.344L1661.13 0V902.255Z" fill="#D9D9D9" fill-opacity="0.4"/>
<path d="M614.054 435.299L0 902.255H307.027C379.021 900.218 447.68 876.025 500.18 834.196L824.967 592.01L1175.86 851.612C1230.83 887.445 1298.81 905.914 1368.09 903.843L1663 902.255L1034.01 435.299L1121.73 373.632C1074.9 378.646 1027.36 375.248 982.18 363.658C937.005 352.068 895.212 332.544 859.517 306.358L543.125 69.6471C521.096 48.847 494.402 31.9758 464.603 20.018C434.803 8.0602 402.494 1.25518 369.56 0L39.1992 0L614.054 435.299Z" fill="#D9D9D9" fill-opacity="0.4"/>
<path d="M1166.52 338.743C1110.5 355.936 1049.58 358.016 992.109 344.697C934.639 331.379 883.431 303.314 845.503 264.349L1115.51 61.6677C1154.85 24.9939 1209.56 2.85496 1267.92 0L1620.08 0L1166.52 338.743Z" fill="#D9D9D9" fill-opacity="0.4"/>
</g>
</svg>
