<svg width="2034" height="228" viewBox="0 0 2034 228" fill="none" xmlns="http://www.w3.org/2000/svg">
<g style="mix-blend-mode:overlay">
<path d="M0.744532 113.5C0.744532 43 42.7445 0.399987 110.545 0.399987C166.345 0.399987 208.645 32.5 217.345 87.4H155.545C151.045 66.1 135.445 52.9 112.645 52.9C85.3445 52.9 66.1445 73 66.1445 113.5C66.1445 154.3 85.3445 174.4 112.645 174.4C135.445 174.4 151.945 160.3 156.445 139.6H217.945C209.245 194.8 166.645 226.9 110.545 226.9C42.7445 226.9 0.744532 184.3 0.744532 113.5ZM350.118 60.7V117.7C345.618 116.8 340.818 115.9 335.118 115.9C315.918 115.9 302.118 121.9 302.118 143.5V223H242.118V61.6H300.618V92.5C306.918 72.4 324.918 60.4 342.618 60.4H346.218C347.718 60.4 349.218 60.4 350.118 60.7ZM450.831 227.2C393.831 227.2 361.131 190.9 361.131 140.2C361.131 88.6 399.231 55.6 448.131 55.6C504.531 55.6 539.631 100 535.731 156.1H419.331C421.431 172.6 432.831 183.1 451.731 183.1C463.431 183.1 475.431 177.4 479.031 168.7H535.431C528.231 192.4 501.231 227.2 450.831 227.2ZM452.031 96.7C439.431 96.7 424.131 103.6 420.231 122.8H482.631C481.131 103.6 464.931 96.7 452.031 96.7ZM659.268 120.7V116.2C659.268 98.5 648.168 94.9 635.268 94.9C619.968 94.9 610.068 101.5 607.968 115.6H556.368C558.768 85.3 586.368 55.9 639.468 55.9C685.668 55.9 718.968 73.3 718.068 127.3L717.768 158.2V174.1C717.768 190.6 718.968 209.8 720.768 223H664.968V202C652.968 220 632.868 226.9 610.068 226.9C578.568 226.9 552.468 207.4 552.468 178.6C552.468 140.8 590.868 125.5 659.268 120.7ZM661.368 155.5V150.7C629.268 152.8 612.768 157.9 612.768 172C612.768 178.9 618.468 186.7 632.568 186.7C648.168 186.7 661.368 180.4 661.368 155.5ZM766.291 61.6V17.2H826.291V61.6H867.391V99.4H826.291V171.4C826.291 180.7 829.891 182.5 837.991 182.5H867.391V223H825.991C781.591 223 766.291 218.8 766.291 174.4V99.4H733.891V61.6H766.291ZM975.831 227.2C918.831 227.2 886.131 190.9 886.131 140.2C886.131 88.6 924.231 55.6 973.131 55.6C1029.53 55.6 1064.63 100 1060.73 156.1H944.331C946.431 172.6 957.831 183.1 976.731 183.1C988.431 183.1 1000.43 177.4 1004.03 168.7H1060.43C1053.23 192.4 1026.23 227.2 975.831 227.2ZM977.031 96.7C964.431 96.7 949.131 103.6 945.231 122.8H1007.63C1006.13 103.6 989.931 96.7 977.031 96.7ZM1165.02 61.6V17.2H1225.02V61.6H1266.12V99.4H1225.02V171.4C1225.02 180.7 1228.62 182.5 1236.72 182.5H1266.12V223H1224.72C1180.32 223 1165.02 218.8 1165.02 174.4V99.4H1132.62V61.6H1165.02ZM1372.76 101.5C1357.46 101.5 1345.76 112 1345.76 142C1345.76 172 1357.46 182.2 1372.76 182.2C1388.06 182.2 1399.76 172 1399.76 142C1399.76 112 1388.06 101.5 1372.76 101.5ZM1372.76 226.9C1324.46 226.9 1283.96 198.7 1283.96 142C1283.96 85.6 1324.46 56.8 1372.76 56.8C1420.46 56.8 1461.56 85.6 1461.56 142C1461.56 198.7 1420.46 226.9 1372.76 226.9ZM1486.36 5.49999H1546.36V115.3L1597.06 61.6H1664.56L1605.16 123.4L1666.06 223H1597.96L1563.76 166.3L1546.36 184.6V223H1486.36V5.49999ZM1759.52 227.2C1702.52 227.2 1669.82 190.9 1669.82 140.2C1669.82 88.6 1707.92 55.6 1756.82 55.6C1813.22 55.6 1848.32 100 1844.42 156.1H1728.02C1730.12 172.6 1741.52 183.1 1760.42 183.1C1772.12 183.1 1784.12 177.4 1787.72 168.7H1844.12C1836.92 192.4 1809.92 227.2 1759.52 227.2ZM1760.72 96.7C1748.12 96.7 1732.82 103.6 1728.92 122.8H1791.32C1789.82 103.6 1773.62 96.7 1760.72 96.7ZM1929.56 61.6V82.6C1940.36 66.7 1957.76 58 1979.66 58C2019.86 58 2033.36 82.3 2033.36 121.9V223H1973.36V133.9C1973.36 120.4 1971.56 106 1953.86 106C1939.16 106 1929.56 114.7 1929.56 138.4V223H1869.56V61.6H1929.56Z" fill="white"/>
</g>
</svg>
