<svg width="30" height="36" viewBox="0 0 30 36" fill="none" xmlns="http://www.w3.org/2000/svg">
<path d="M13.4219 9.69824C15.9219 9.69824 19.3219 11.5982 18.9219 15.1982M23.9219 14.6982C23.9219 19.9449 18.9219 25.6982 14.4219 28.1982C9.92188 25.6982 4.92188 19.9449 4.92188 14.6982C4.92188 9.45154 9.17517 5.19824 14.4219 5.19824C19.6686 5.19824 23.9219 9.45154 23.9219 14.6982Z" stroke="black" stroke-width="2" stroke-linecap="round"/>
<path d="M8.92188 25.1982L5.92188 27.1982" stroke="black" stroke-width="2" stroke-linecap="round"/>
<path d="M20.25 25.1982L23.25 27.1982" stroke="black" stroke-width="2" stroke-linecap="round"/>
<path d="M6.2237 21.1478L2.61958 21.2494" stroke="black" stroke-width="2" stroke-linecap="round"/>
<path d="M22.9482 21.1478L26.5523 21.2494" stroke="black" stroke-width="2" stroke-linecap="round"/>
<path d="M4.45003 15.3658L0.999957 14.3184" stroke="black" stroke-width="2" stroke-linecap="round"/>
<path d="M24.7218 15.3658L28.1719 14.3184" stroke="black" stroke-width="2" stroke-linecap="round"/>
<path d="M6.12636 9.02268L3.16782 6.96185" stroke="black" stroke-width="2" stroke-linecap="round"/>
<path d="M23.0455 9.02268L26.0041 6.96185" stroke="black" stroke-width="2" stroke-linecap="round"/>
<path d="M9.90928 5.40637L8.26294 2.19863" stroke="black" stroke-width="2" stroke-linecap="round"/>
<path d="M19.2626 5.40637L20.9089 2.19863" stroke="black" stroke-width="2" stroke-linecap="round"/>
<path d="M15.0366 4.60403L15.1341 0.999794" stroke="black" stroke-width="2" stroke-linecap="round"/>
<path d="M10.9219 28.6982H17.4219" stroke="black" stroke-width="2" stroke-linecap="round"/>
<path d="M10.9219 31.6982H17.4219" stroke="black" stroke-width="2" stroke-linecap="round"/>
<path d="M10.9219 34.6982H17.4219" stroke="black" stroke-width="2" stroke-linecap="round"/>
</svg>
