<svg width="198" height="28" viewBox="0 0 198 28" fill="none" xmlns="http://www.w3.org/2000/svg">
<g clip-path="url(#clip0_8490_2914)">
<path d="M43.1489 27.3632L34.8577 21.362V7.44092L43.1489 0V27.3632Z" fill="#5B9D07"/>
<g style="mix-blend-mode:overlay">
<path d="M43.1489 27.3632L34.8577 21.362V7.44092L43.1489 0V27.3632Z" fill="url(#paint0_linear_8490_2914)"/>
<path d="M43.1489 27.3632L34.8577 21.362V7.44092L43.1489 0V27.3632Z" fill="black" fill-opacity="0.2"/>
</g>
<g opacity="0.47">
<path d="M43.1489 27.3631L34.8577 21.3619V17.5708L43.1489 27.3631Z" fill="url(#paint1_linear_8490_2914)"/>
</g>
<g opacity="0.47">
<path d="M43.1489 0L34.8577 9.76161V7.32888L43.1489 0Z" fill="url(#paint2_linear_8490_2914)"/>
</g>
<path d="M15.9501 13.1997L0 27.3632H7.97506C9.84545 27.3022 11.6293 26.5682 12.9926 25.2988L21.4296 17.9577L30.5439 25.8299C31.9718 26.9161 33.7371 27.4762 35.5367 27.4139L43.1971 27.3663L26.8594 13.1997L29.1411 11.3287C27.9253 11.4816 26.6906 11.3793 25.5174 11.0283C24.3441 10.6774 23.2587 10.0858 22.3317 9.29195L14.1055 2.11195C13.5336 1.48141 12.8406 0.969939 12.067 0.607343C11.2934 0.244747 10.4546 0.0382865 9.59952 0L1.01839 0L15.9501 13.1997Z" fill="#406050"/>
<path d="M30.3007 10.2727C28.8457 10.7951 27.2631 10.8587 25.7702 10.4547C24.2773 10.0507 22.9473 9.19898 21.9629 8.01649L28.9754 1.87711C29.996 0.761581 31.4182 0.0875005 32.9358 0L42.0811 0L30.3007 10.2727Z" fill="url(#paint3_linear_8490_2914)"/>
<path d="M30.3007 10.2727C28.8457 10.7951 27.2631 10.8587 25.7702 10.4547C24.2773 10.0507 22.9473 9.19898 21.9629 8.01649L28.9754 1.87711C29.996 0.761581 31.4182 0.0875005 32.9358 0L42.0811 0L30.3007 10.2727Z" fill="#406050"/>
<path d="M60.6074 11.8074H71.1958V13.904H60.6074V18.0988H73.3179V20.1954H58.4946V5.51611H73.3179V7.61425H60.6074V11.8074Z" fill="#5B9D07"/>
<path d="M88.3781 5.51611C90.6443 5.51611 92.5509 7.38248 92.6144 9.71084H90.4955C90.4938 9.15529 90.2702 8.62295 89.8735 8.23011C89.4768 7.83728 88.9392 7.61586 88.3781 7.61425H82.0228C81.4618 7.61586 80.9242 7.83728 80.5274 8.23011C80.1307 8.62295 79.9071 9.15529 79.9055 9.71084V16.0037C79.9071 16.5593 80.1307 17.0916 80.5274 17.4844C80.9242 17.8773 81.4618 18.0987 82.0228 18.1003H88.3781C88.9392 18.0987 89.4768 17.8773 89.8735 17.4844C90.2702 17.0916 90.4938 16.5593 90.4955 16.0037H92.6144C92.6039 17.1128 92.1541 18.1736 91.3619 18.9578C90.5697 19.7419 89.4982 20.1869 88.3781 20.1969H82.0228C80.9006 20.1941 79.8251 19.7514 79.0316 18.9656C78.238 18.1798 77.791 17.1149 77.7881 16.0037V9.71084C77.7881 7.44541 79.6482 5.57904 82.0228 5.51611H88.3781Z" fill="#5B9D07"/>
<path d="M111.914 16.0022C111.911 17.1136 111.464 18.1785 110.67 18.9642C109.876 19.75 108.8 20.1926 107.678 20.1954H101.323C100.766 20.1973 100.215 20.09 99.7001 19.88C99.1854 19.6699 98.7179 19.3611 98.3243 18.9713C97.9307 18.5816 97.6188 18.1186 97.4066 17.6091C97.1945 17.0995 97.0862 16.5534 97.088 16.0022V9.70938C97.0913 8.59813 97.5385 7.53329 98.3319 6.74737C99.1253 5.96145 100.201 5.51829 101.323 5.51465H107.678C109.924 5.51465 111.914 7.42399 111.914 9.70938V16.0022ZM109.797 9.70938C109.795 9.15368 109.571 8.62135 109.174 8.22855C108.777 7.83576 108.239 7.6144 107.678 7.61278H101.323C100.761 7.614 100.223 7.83544 99.8259 8.22865C99.4287 8.62187 99.2051 9.15483 99.2039 9.71091V16.0038C99.2055 16.5593 99.4291 17.0917 99.8258 17.4845C100.223 17.8773 100.76 18.0988 101.321 18.1004H107.676C108.238 18.0988 108.775 17.8774 109.172 17.4846C109.569 17.0918 109.793 16.5595 109.795 16.0038L109.797 9.70938Z" fill="#5B9D07"/>
<path d="M127.178 5.51611C129.444 5.51611 131.351 7.38248 131.414 9.71084H129.297C129.295 9.15515 129.071 8.62281 128.674 8.23002C128.277 7.83722 127.739 7.61586 127.178 7.61425H120.823C120.261 7.61586 119.724 7.83728 119.327 8.23011C118.93 8.62295 118.707 9.15529 118.705 9.71084V16.0037C118.707 16.5593 118.93 17.0916 119.327 17.4844C119.724 17.8773 120.261 18.0987 120.823 18.1003H127.178C127.739 18.0987 128.277 17.8773 128.674 17.4845C129.071 17.0917 129.295 16.5594 129.297 16.0037H131.414C131.404 17.1128 130.954 18.1736 130.162 18.9578C129.369 19.7419 128.298 20.1869 127.178 20.1969H120.823C119.7 20.1937 118.625 19.7508 117.832 18.9652C117.038 18.1795 116.591 17.1148 116.588 16.0037V9.71084C116.588 7.44541 118.448 5.57904 120.823 5.51611H127.178Z" fill="#406050"/>
<path d="M138.213 11.8075H148.806V5.51465H150.925V20.1939H148.806V13.901H138.213V20.1939H136.095V5.51618H138.213V11.8075Z" fill="#406050"/>
<path d="M170.849 20.1954H168.73V16.0022H158.142V20.1954H156.024V9.71084C156.035 8.60169 156.484 7.54078 157.276 6.75632C158.068 5.97186 159.139 5.52652 160.259 5.51611H166.614C168.881 5.51611 170.787 7.38248 170.851 9.71084L170.849 20.1954ZM160.259 7.60964C159.698 7.61126 159.16 7.83267 158.764 8.22551C158.367 8.61835 158.143 9.15068 158.142 9.70624V13.904H168.73V9.71084C168.729 9.15529 168.505 8.62295 168.108 8.23011C167.712 7.83728 167.174 7.61586 166.613 7.61425L160.259 7.60964Z" fill="#406050"/>
<path d="M175.953 5.51611H178.071V20.1954H175.953V5.51611Z" fill="#406050"/>
<path d="M198 20.1954H195.882L185.292 8.91426V20.1954H183.175V5.51611H185.292L195.882 16.6315V5.51611H198V20.1954Z" fill="#406050"/>
</g>
<defs>
<linearGradient id="paint0_linear_8490_2914" x1="39.0041" y1="27.3632" x2="39.0041" y2="0" gradientUnits="userSpaceOnUse">
<stop stop-color="#161C20"/>
<stop offset="0.33" stop-color="#B2B7BF"/>
<stop offset="0.58" stop-color="#939AA4"/>
<stop offset="0.75" stop-color="#F9F9FB"/>
<stop offset="0.97" stop-color="#D4D5D9"/>
</linearGradient>
<linearGradient id="paint1_linear_8490_2914" x1="39.0041" y1="27.3631" x2="39.0041" y2="17.5708" gradientUnits="userSpaceOnUse">
<stop stop-color="#161C20"/>
<stop offset="0.24" stop-color="#1F2529"/>
<stop offset="1" stop-color="#171D21"/>
</linearGradient>
<linearGradient id="paint2_linear_8490_2914" x1="39.0041" y1="9.76161" x2="39.0041" y2="0" gradientUnits="userSpaceOnUse">
<stop stop-color="#161C20"/>
<stop offset="0.24" stop-color="#1F2529"/>
<stop offset="1" stop-color="#171D21"/>
</linearGradient>
<linearGradient id="paint3_linear_8490_2914" x1="32.0228" y1="10.7147" x2="32.0228" y2="0" gradientUnits="userSpaceOnUse">
<stop stop-color="#161C20"/>
<stop offset="0.09" stop-color="#20262A"/>
<stop offset="0.33" stop-color="#B2B7BF"/>
<stop offset="0.58" stop-color="#81868C"/>
<stop offset="0.75" stop-color="#F9F9FB"/>
<stop offset="0.97" stop-color="#D4D5D9"/>
</linearGradient>
<clipPath id="clip0_8490_2914">
<rect width="198" height="27.4154" fill="white"/>
</clipPath>
</defs>
</svg>
