<svg width="1920" height="200" viewBox="0 0 1920 200" fill="none" xmlns="http://www.w3.org/2000/svg">
<g style="mix-blend-mode:overlay">
<path d="M-60.2555 113.5C-60.2555 43 -18.2555 0.399987 49.5445 0.399987C105.345 0.399987 147.645 32.5 156.345 87.4H94.5445C90.0445 66.1 74.4445 52.9 51.6445 52.9C24.3445 52.9 5.14453 73 5.14453 113.5C5.14453 154.3 24.3445 174.4 51.6445 174.4C74.4445 174.4 90.9445 160.3 95.4445 139.6H156.945C148.245 194.8 105.645 226.9 49.5445 226.9C-18.2555 226.9 -60.2555 184.3 -60.2555 113.5ZM289.118 60.7V117.7C284.618 116.8 279.818 115.9 274.118 115.9C254.918 115.9 241.118 121.9 241.118 143.5V223H181.118V61.6H239.618V92.5C245.918 72.4 263.918 60.4 281.618 60.4H285.218C286.718 60.4 288.218 60.4 289.118 60.7ZM389.831 227.2C332.831 227.2 300.131 190.9 300.131 140.2C300.131 88.6 338.231 55.6 387.131 55.6C443.531 55.6 478.631 100 474.731 156.1H358.331C360.431 172.6 371.831 183.1 390.731 183.1C402.431 183.1 414.431 177.4 418.031 168.7H474.431C467.231 192.4 440.231 227.2 389.831 227.2ZM391.031 96.7C378.431 96.7 363.131 103.6 359.231 122.8H421.631C420.131 103.6 403.931 96.7 391.031 96.7ZM598.268 120.7V116.2C598.268 98.5 587.168 94.9 574.268 94.9C558.968 94.9 549.068 101.5 546.968 115.6H495.368C497.768 85.3 525.368 55.9 578.468 55.9C624.668 55.9 657.968 73.3 657.068 127.3L656.768 158.2V174.1C656.768 190.6 657.968 209.8 659.768 223H603.968V202C591.968 220 571.868 226.9 549.068 226.9C517.568 226.9 491.468 207.4 491.468 178.6C491.468 140.8 529.868 125.5 598.268 120.7ZM600.368 155.5V150.7C568.268 152.8 551.768 157.9 551.768 172C551.768 178.9 557.468 186.7 571.568 186.7C587.168 186.7 600.368 180.4 600.368 155.5ZM705.291 61.6V17.2H765.291V61.6H806.391V99.4H765.291V171.4C765.291 180.7 768.891 182.5 776.991 182.5H806.391V223H764.991C720.591 223 705.291 218.8 705.291 174.4V99.4H672.891V61.6H705.291ZM914.831 227.2C857.831 227.2 825.131 190.9 825.131 140.2C825.131 88.6 863.231 55.6 912.131 55.6C968.531 55.6 1003.63 100 999.731 156.1H883.331C885.431 172.6 896.831 183.1 915.731 183.1C927.431 183.1 939.431 177.4 943.031 168.7H999.431C992.231 192.4 965.231 227.2 914.831 227.2ZM916.031 96.7C903.431 96.7 888.131 103.6 884.231 122.8H946.631C945.131 103.6 928.931 96.7 916.031 96.7ZM1104.02 61.6V17.2H1164.02V61.6H1205.12V99.4H1164.02V171.4C1164.02 180.7 1167.62 182.5 1175.72 182.5H1205.12V223H1163.72C1119.32 223 1104.02 218.8 1104.02 174.4V99.4H1071.62V61.6H1104.02ZM1311.76 101.5C1296.46 101.5 1284.76 112 1284.76 142C1284.76 172 1296.46 182.2 1311.76 182.2C1327.06 182.2 1338.76 172 1338.76 142C1338.76 112 1327.06 101.5 1311.76 101.5ZM1311.76 226.9C1263.46 226.9 1222.96 198.7 1222.96 142C1222.96 85.6 1263.46 56.8 1311.76 56.8C1359.46 56.8 1400.56 85.6 1400.56 142C1400.56 198.7 1359.46 226.9 1311.76 226.9ZM1425.36 5.49999H1485.36V115.3L1536.06 61.6H1603.56L1544.16 123.4L1605.06 223H1536.96L1502.76 166.3L1485.36 184.6V223H1425.36V5.49999ZM1698.52 227.2C1641.52 227.2 1608.82 190.9 1608.82 140.2C1608.82 88.6 1646.92 55.6 1695.82 55.6C1752.22 55.6 1787.32 100 1783.42 156.1H1667.02C1669.12 172.6 1680.52 183.1 1699.42 183.1C1711.12 183.1 1723.12 177.4 1726.72 168.7H1783.12C1775.92 192.4 1748.92 227.2 1698.52 227.2ZM1699.72 96.7C1687.12 96.7 1671.82 103.6 1667.92 122.8H1730.32C1728.82 103.6 1712.62 96.7 1699.72 96.7ZM1868.56 61.6V82.6C1879.36 66.7 1896.76 58 1918.66 58C1958.86 58 1972.36 82.3 1972.36 121.9V223H1912.36V133.9C1912.36 120.4 1910.56 106 1892.86 106C1878.16 106 1868.56 114.7 1868.56 138.4V223H1808.56V61.6H1868.56Z" fill="white"/>
</g>
</svg>
