<svg width="32" height="32" viewBox="0 0 32 32" fill="none" xmlns="http://www.w3.org/2000/svg">
<path fill-rule="evenodd" clip-rule="evenodd" d="M16.3158 15.6316C19.8039 15.6316 22.6316 12.8039 22.6316 9.31579C22.6316 5.82768 19.8039 3 16.3158 3C12.8277 3 10 5.82768 10 9.31579C10 12.8039 12.8277 15.6316 16.3158 15.6316ZM16.3158 13.6316C18.6993 13.6316 20.6316 11.6993 20.6316 9.31579C20.6316 6.93224 18.6993 5 16.3158 5C13.9322 5 12 6.93224 12 9.31579C12 11.6993 13.9322 13.6316 16.3158 13.6316Z" fill="black"/>
<path fill-rule="evenodd" clip-rule="evenodd" d="M26.9914 27.8684C26.9971 27.8253 27 27.7814 27 27.7368C27 21.6617 22.0751 16.7368 16 16.7368C9.92487 16.7368 5 21.6617 5 27.7368C5 27.7814 5.00292 27.8253 5.00858 27.8684C5.00292 27.9115 5 27.9554 5 28C5 28.5523 5.44772 29 6 29H26C26.5523 29 27 28.5523 27 28C27 27.9554 26.9971 27.9115 26.9914 27.8684ZM7.02973 27H24.9703C24.5954 22.3741 20.7225 18.7368 16 18.7368C11.2775 18.7368 7.40456 22.3741 7.02973 27Z" fill="black"/>
</svg>
