<svg width="32" height="32" viewBox="0 0 32 32" fill="none" xmlns="http://www.w3.org/2000/svg">
<path fill-rule="evenodd" clip-rule="evenodd" d="M7.53428 7.61484L7.35284 8.16704H7C4.79086 8.16704 3 9.9579 3 12.167V24.167C3 26.3762 4.79086 28.167 7 28.167H25C27.2091 28.167 29 26.3762 29 24.167V12.167C29 10.2292 27.622 8.61319 25.7924 8.24552L25.8025 8.21372L13.7947 4.40914C11.182 3.58132 8.3898 5.01109 7.53428 7.61484ZM13.1906 6.31572L19.0336 8.16704H9.45904C9.99954 6.65064 11.6472 5.82673 13.1906 6.31572ZM25 10.167H7C5.89543 10.167 5 11.0625 5 12.167V24.167C5 25.2716 5.89543 26.167 7 26.167H15.0007V16.4143L10.3438 21.0711C9.9533 21.4616 9.32014 21.4616 8.92961 21.0711C8.53909 20.6806 8.53909 20.0474 8.92961 19.6569L15.2936 13.2929C15.6841 12.9024 16.3173 12.9024 16.7078 13.2929L23.0717 19.6569C23.4623 20.0474 23.4623 20.6806 23.0717 21.0711C22.6812 21.4616 22.0481 21.4616 21.6575 21.0711L17.0007 16.4143V26.167H25C26.1046 26.167 27 25.2716 27 24.167V12.167C27 11.0625 26.1046 10.167 25 10.167Z" fill="black"/>
</svg>
